<svg width="338" height="186" viewBox="0 0 338 186" fill="none" xmlns="http://www.w3.org/2000/svg">
<path d="M40.7576 167C22.5758 161.942 13.4848 150.299 13.4848 132.072L13.4848 117.124C13.4848 106.557 8.9899 101.274 0 101.274L0 85.7256C8.78788 85.7256 13.2828 80.743 13.4848 70.7777L13.4848 54.8533C13.4848 45.5892 15.7576 38.1027 20.303 32.394C24.8485 26.6852 31.6667 22.5539 40.7576 20L45 32.0935C41.1616 33.4957 38.2576 35.9494 36.2879 39.4548C34.3182 42.9101 33.2828 47.7174 33.1818 53.8769V69.651C33.1818 80.9683 28.6616 88.9055 19.6212 93.4624C28.6616 98.0695 33.1818 106.057 33.1818 117.424V133.348C33.4343 145.066 37.3737 152.227 45 154.831L40.7576 167Z" fill="#333333"/>
<path d="M297.242 20C315.424 25.0577 324.515 36.7006 324.515 54.9285L324.515 69.8763C324.515 80.4425 329.01 85.7256 338 85.7256L338 101.274C329.212 101.274 324.717 106.257 324.515 116.222L324.515 132.147C324.515 141.411 322.242 148.897 317.697 154.606C313.152 160.315 306.333 164.446 297.242 167L293 154.906C296.838 153.504 299.742 151.051 301.712 147.545C303.682 144.09 304.717 139.283 304.818 133.123L304.818 117.349C304.818 106.032 309.338 98.0945 318.379 93.5376C309.338 88.9305 304.818 80.9433 304.818 69.5759L304.818 53.6515C304.566 41.9336 300.626 34.7726 293 32.1686L297.242 20Z" fill="#333333"/>
<path d="M162.909 0.0500533C162.509 0.0864116 161.236 0.213666 160.091 0.304561C133.673 2.68603 108.927 16.9385 93.2545 38.8444C84.5273 51.0244 78.9455 64.8405 76.8364 79.4747C76.0909 84.5831 76 86.092 76 93.0182C76 99.9445 76.0909 101.453 76.8364 106.562C81.8909 141.484 106.745 170.825 140.455 181.696C146.491 183.641 152.855 184.968 160.091 185.768C162.909 186.077 175.091 186.077 177.909 185.768C190.4 184.387 200.982 181.296 211.418 175.97C213.018 175.152 213.327 174.933 213.109 174.752C212.964 174.643 206.145 165.498 197.964 154.446L183.091 134.358L164.455 106.78C154.2 91.6184 145.764 79.2202 145.691 79.2202C145.618 79.2021 145.545 91.4548 145.509 106.416C145.455 132.612 145.436 133.667 145.109 134.285C144.636 135.176 144.273 135.539 143.509 135.939C142.927 136.23 142.418 136.285 139.673 136.285H136.527L135.691 135.757C135.145 135.412 134.745 134.958 134.473 134.43L134.091 133.612L134.127 97.1631L134.182 60.6957L134.745 59.9867C135.036 59.6049 135.655 59.1141 136.091 58.8778C136.836 58.5142 137.127 58.4778 140.273 58.4778C143.982 58.4778 144.6 58.6233 145.564 59.6777C145.836 59.9685 155.927 75.1663 168 93.4727C180.073 111.779 196.582 136.775 204.691 149.046L219.418 171.352L220.164 170.861C226.764 166.571 233.745 160.463 239.273 154.1C251.036 140.593 258.618 124.123 261.164 106.562C261.909 101.453 262 99.9445 262 93.0182C262 86.092 261.909 84.5831 261.164 79.4747C256.109 44.5526 231.255 15.2115 197.545 4.34033C191.6 2.41334 185.273 1.08626 178.182 0.286382C176.436 0.104591 164.418 -0.0953799 162.909 0.0500533V0.0500533ZM200.982 56.2963C201.855 56.7326 202.564 57.5689 202.818 58.4415C202.964 58.9141 203 69.0217 202.964 91.8002L202.909 124.486L197.145 115.651L191.364 106.816V83.056C191.364 67.6947 191.436 59.0596 191.545 58.6414C191.836 57.6234 192.473 56.8235 193.345 56.3509C194.091 55.9691 194.364 55.9327 197.218 55.9327C199.909 55.9327 200.382 55.9691 200.982 56.2963V56.2963Z" fill="#0293FF"/>
</svg>
